<svg width="359" height="205" viewBox="0 0 359 205" fill="none" xmlns="http://www.w3.org/2000/svg">
<path fill-rule="evenodd" clip-rule="evenodd" d="M75.4382 69.856L84.3024 58.1937C88.3207 52.9069 94.9288 50.4219 101.336 51.7885C106.296 52.8464 109.48 57.8197 108.446 62.8966C108.36 63.3167 108.247 63.7303 108.106 64.1347C100.742 85.2696 98.3982 99.2291 101.074 106.013C112.087 92.6197 168.354 5.28542 186.138 1.13977C192.075 -0.244335 197.985 3.55939 199.337 9.63593C199.794 11.6917 199.68 13.8376 199.007 15.8303C182.203 65.5551 175.089 95.6222 177.664 106.032C186.538 93.2515 199.72 76.0506 217.21 54.4287C223.779 46.3071 234.26 42.6674 244.301 45.0204C253.132 47.0895 258.651 56.093 256.631 65.1304C256.618 65.1897 256.605 65.2491 256.589 65.3084C250.504 91.2124 248.248 106.368 249.823 110.775C250.517 110.234 251.223 109.679 251.939 109.11C259.96 102.738 270.003 99.6328 280.13 100.394L358.704 106.294L306.646 112.353C292.113 114.044 278.802 121.486 269.559 133.088L257.101 148.725C253.023 153.845 246.757 156.601 240.321 156.105C233.927 155.612 228.64 150.812 227.402 144.374C224.36 128.56 223.872 109.893 225.941 88.3735C210.309 112.277 196.746 146.654 185.253 191.506C183.277 199.218 176.466 204.595 168.676 204.595C161.237 204.595 155.143 198.547 154.915 190.937L151.47 76.2513L118.155 143.444C114.688 150.437 107.059 154.169 99.5643 152.537C91.6244 150.809 85.0561 145.13 82.0648 137.407L78.3318 127.769C73.0494 114.131 61.1273 104.358 46.9697 102.06C31.4005 99.534 15.8314 97.0077 0.262269 94.4813L34.9418 91.9711C50.8959 90.8162 65.6185 82.7762 75.4382 69.856Z" fill="white"/>
</svg>
