<svg width="596.694336" height="444.082458" viewBox="0 0 596.694 444.082" fill="none" xmlns="http://www.w3.org/2000/svg" xmlns:xlink="http://www.w3.org/1999/xlink">
	<desc>
			Created with Pixso.
	</desc>
	<defs/>
	<path d="M581.76 322.12C570.31 306.03 552.94 284.41 539.36 279.89C531.86 274.51 520.27 269.61 507.86 264.47L501.54 261.82C501.7 257.7 500.16 254.54 496.74 252.21C475.81 237.95 454.59 217.88 434.2 195.66C434.75 194.54 435.06 193.28 435.06 191.9C435.06 186.71 430.83 182.06 425.63 181.53C424.13 181.37 422.76 181.34 421.28 181.2C415.33 174.34 409.51 167.41 403.83 160.41C404.81 159.03 405.51 157.43 405.51 155.54C405.51 150.34 401.28 145.69 396.09 145.16C395.6 145.11 393.9 144.94 391.31 144.76C384.68 136.28 378.16 127.76 371.74 119.18C372.15 118.18 372.42 117.1 372.42 115.92C372.42 110.71 368.2 106.06 363.01 105.53C362.5 105.48 362.04 105.46 361.56 105.41C355.51 97.15 349.52 88.87 343.58 80.57C343.88 79.67 344.17 78.75 344.17 77.72C344.17 72.53 339.93 67.88 334.75 67.35L334.09 67.3C309.86 33.48 305.45 28.3 298.74 27.61C294.31 27.15 290.19 26.97 286.18 26.9C284.67 24.49 283.13 22.15 281.62 19.72C276.94 12.14 266.93 2.62 245.96 0.45C214.19 -2.82 170.6 12.22 145.02 22.63C120.76 11.6 100.13 5.06 83.89 3.39C67.32 1.68 59.6 5.35 56.37 7.73C56.17 7.85 55.93 7.91 55.74 8.05C37.87 22.38 26.37 51.42 18.99 80.61C7.22 110.41 5.95 135.53 6.14 147.19C5.41 147.82 4.78 148.53 4.27 149.3C-2.6 160.41 -1.19 206.41 8.48 217.36C33.28 245.54 58.65 264.78 85.52 285.14C115.9 308.18 147.31 331.99 184.23 372.48C216.04 407.37 282.25 432.32 365.91 440.95C477.37 452.45 596.7 432 596.69 383.25C596.68 329.58 589.68 323.2 581.76 322.12ZM570.81 329.28C549.27 354.73 449.22 359.33 361.14 350.24C331.73 347.21 305.78 342.85 288.03 337.96C263.44 331.18 240.28 321.78 218.56 310.86C238.95 290.87 275.86 291.24 313.47 295.12C328.08 296.63 343.16 298.72 359.14 300.97C375.46 303.24 392.33 305.59 409.02 307.31C449.29 311.47 500 313.39 537.93 292.03C544.72 296.12 558.22 311.45 570.81 329.28ZM452.52 241.6C458.28 247.17 463.71 252.45 468.37 257.14C474.75 263.56 488.35 269.2 502.73 275.17C510.17 278.26 517.66 281.41 523.58 284.43C490.13 300.81 447.2 299.25 409.02 295.32C393.43 293.71 377.56 291.51 362.11 289.35C362.08 276.23 359.76 262.65 355.85 254.08C378.4 245.44 410.8 238.22 452.52 241.6ZM409.13 199.09C416.72 206.73 424.39 214.31 432.14 221.84C394.51 221.47 365.01 228.96 343.97 237.54C336.59 228.17 329.16 218.83 321.67 209.51C341.58 202.45 370.07 196.96 409.13 199.09ZM390.3 179.73C354.33 179.71 327.64 185.9 308.54 193.41C302.53 186.05 296.63 178.92 290.88 172.05C319.93 163.49 353.28 162.42 374.51 162.87C379.88 168.71 385.12 174.28 390.3 179.73ZM277.28 155.99C270.1 147.58 262.82 139.23 255.45 130.92C276.39 125.59 304.61 121.45 339.66 122.78C345.51 129.87 351.48 136.88 357.58 143.84C334.24 144.22 304.01 146.88 277.28 155.99ZM359.26 124.06C363.65 129.95 368.18 135.93 372.85 142C367.58 136.02 362.4 129.99 357.3 123.91C357.96 123.96 358.6 123.99 359.26 124.06ZM331.43 85.9C335.57 91.67 339.93 97.72 344.54 104.08C343.33 104.01 342.17 104.01 340.97 103.95C336.13 97.85 331.38 91.71 326.72 85.52C328.31 85.66 329.83 85.75 331.43 85.9ZM240.7 114.67C233.82 107.18 226.81 99.77 219.68 92.43C241.16 86.95 271.01 82.72 309.74 84.4C314.58 90.94 319.42 97.33 324.26 103.52C289 103.51 261.1 108.71 240.7 114.67ZM296.72 39.44C300.25 42.8 308.21 53.58 317.14 65.95C315.47 65.84 313.79 65.72 312.14 65.64C305.95 56.93 299.94 48.15 294.12 39.3C295 39.37 295.81 39.36 296.72 39.44ZM245.96 12.46C257.2 13.62 264.69 17.44 268.85 24.15C277.39 37.96 286.38 51.61 295.82 65.08C255.48 64.55 225.08 70.26 203.71 76.68C182.78 56.62 165.1 42.43 150.81 34.44C174.77 24.56 217.06 9.48 245.96 12.46ZM67.29 16.77C68.82 16.02 73.55 14.32 83.89 15.38C91.9 16.21 104.73 18.97 123.54 26.37C98.3 26.12 84.34 41.08 73.09 53.45C65.85 61.38 59.05 68.87 52.69 68.5C48.79 63.98 55.74 39.53 67.29 16.77ZM37.92 67.76C38.44 70.12 39.31 72.21 40.61 73.95C43.27 77.47 47.41 79.67 52.26 80.17C66.72 81.66 75.64 71.86 85.08 61.47C96.38 49.09 108.04 36.28 129.64 38.5C141.71 39.75 162.59 54.71 190.25 81.14C183.34 83.74 178.03 86.21 174.01 88.26C172.9 87.83 171.73 87.55 170.56 87.41C162.97 86.62 156.83 92.13 156.83 99.71C156.83 107.28 162.98 114.06 170.56 114.84C177.21 115.53 182.74 111.38 184.02 105.24C190.92 101.81 198.19 98.86 205.77 96.42C213.07 103.86 220.23 111.39 227.25 119.02C220.87 121.29 214.69 123.89 208.75 126.78C207.57 126.31 206.33 126 205.08 125.85C197.5 125.07 191.36 130.57 191.36 138.15C191.36 145.74 197.51 152.5 205.09 153.29C211.62 153.96 217.06 149.94 218.45 143.97C225.84 140.43 233.59 137.37 241.64 134.82C249.03 143.06 256.69 151.77 264.57 160.96C256.45 164.57 248.97 169 242.28 174.18C241.92 174.11 241.57 174 241.19 173.96C233.58 173.18 227.45 178.69 227.45 186.26C227.45 193.83 233.59 200.61 241.2 201.4C248.63 202.16 254.66 196.84 254.86 189.47C261.64 184.23 269.37 179.88 277.84 176.55C283.85 183.71 290.01 191.1 296.31 198.75C289.04 202.33 282.31 206.56 276.21 211.36C275.9 211.32 275.61 211.21 275.3 211.18C267.73 210.4 261.58 215.91 261.58 223.49C261.58 231.06 267.74 237.84 275.3 238.62C282.8 239.39 288.85 234.01 288.99 226.57C295.1 221.92 301.87 217.89 309.19 214.55C316.82 224 324.38 233.48 331.88 242.99C325.07 246.32 318.6 250.07 312.53 254.21C311.89 254.05 311.26 253.89 310.62 253.82C303.02 253.04 296.89 258.56 296.89 266.12C296.89 273.7 303.03 280.47 310.63 281.26C317.73 281.99 323.52 277.14 324.2 270.26C330.27 266.19 336.74 262.54 343.58 259.33C346.47 266.41 347.71 277.14 347.65 287.36C336.27 285.75 324.88 284.34 313.49 283.11C270.77 278.7 228.74 278.62 205.34 303.97C143.12 270 94.3 224.13 62.32 190.9C63.03 164.26 55.05 146.75 47.06 129.96C40.4 115.92 34.11 102.63 33.43 84C34.77 78.53 36.25 73.07 37.92 67.76ZM33.59 133.14C39.69 145.97 45.44 158.45 47.3 175C44.67 172.15 42.2 169.47 39.93 166.99C29.88 156.06 24.57 150.38 20.69 147.44C20.73 135.58 22.05 123.87 24.64 112.47C27.24 119.81 30.45 126.54 33.59 133.14ZM365.91 428.95C286.59 420.77 224.46 397.81 195.43 365.98C157.54 324.42 124.08 299.06 94.56 276.67C68.36 256.82 43.63 238.06 19.85 211.05C14.99 205.23 13.01 172.23 15.87 159.78C19.31 163.27 24.09 168.46 28.77 173.56C67.51 215.72 158.24 314.44 285.07 349.4C303.75 354.55 330.78 359.11 361.14 362.24C429.28 369.27 544.93 371.6 579.65 340.72C580.9 347.67 582.13 360.02 582.13 381.73C582.14 418.12 479.08 440.62 365.91 428.95Z" fill="#000000" fill-opacity="1.000000" fill-rule="nonzero"/>
</svg>
