<svg width="400" height="228" viewBox="0 0 400 228" fill="none" xmlns="http://www.w3.org/2000/svg">
<path fill-rule="evenodd" clip-rule="evenodd" d="M83.8921 77.0007L93.784 63.9862C98.2682 58.0864 105.642 55.3134 112.792 56.8384C118.328 58.019 121.88 63.5688 120.727 69.2343C120.631 69.7031 120.504 70.1648 120.348 70.616C112.13 94.2014 109.514 109.779 112.5 117.35C124.791 102.404 187.581 4.94358 207.427 0.317259C214.052 -1.22732 220.647 3.01743 222.156 9.79849C222.667 12.0926 222.539 14.4873 221.788 16.711C203.035 72.2011 195.096 105.754 197.97 117.371C207.874 103.109 222.584 83.9135 242.101 59.7847C249.432 50.7214 261.128 46.6598 272.333 49.2856C282.188 51.5945 288.347 61.6419 286.093 71.7272C286.078 71.7934 286.064 71.8596 286.047 71.9258C279.256 100.833 276.738 117.746 278.495 122.664C279.27 122.06 280.057 121.441 280.857 120.806C289.808 113.695 301.016 110.23 312.316 111.079L400 117.664L341.907 124.424C325.689 126.312 310.834 134.617 300.52 147.564L286.617 165.014C282.067 170.728 275.074 173.803 267.892 173.249C260.756 172.7 254.857 167.343 253.474 160.159C250.08 142.511 249.536 121.679 251.844 97.6652C234.4 124.34 219.265 162.703 206.439 212.755C204.233 221.361 196.634 227.362 187.94 227.362C179.639 227.362 172.838 220.613 172.583 212.12L168.74 84.1374L131.562 159.121C127.693 166.924 119.179 171.089 110.815 169.268C101.955 167.339 94.6251 161.002 91.287 152.384L87.1211 141.628C81.2263 126.409 67.9219 115.503 52.1228 112.939C34.7485 110.12 17.3742 107.3 1.55604e-06 104.481L38.7004 101.68C56.5042 100.391 72.9338 91.4189 83.8921 77.0007Z" fill="white"/>
</svg>
