<svg width="50" height="50" viewBox="0 0 50 50" fill="none" xmlns="http://www.w3.org/2000/svg">
<rect width="50" height="50" rx="25" fill="#D63033"/>
<mask id="mask0_18_370" style="mask-type:luminance" maskUnits="userSpaceOnUse" x="0" y="0" width="50" height="50">
<rect width="50" height="50" rx="25" fill="white"/>
</mask>
<g mask="url(#mask0_18_370)">
<path fill-rule="evenodd" clip-rule="evenodd" d="M28.0729 7C28.7584 7.78043 28.9847 8.89636 28.7876 9.9029C28.5761 11.0334 27.9488 12.0327 27.2122 12.8933C26.6214 13.5862 25.943 14.1989 25.2356 14.7678C24.4114 15.4315 23.6018 16.1463 23.084 17.0799C22.6463 17.8385 22.5442 18.772 22.8433 19.5962C23.332 21.0112 24.4698 22.0615 25.0897 23.3963C24.4041 22.7909 23.7331 22.1636 23.1059 21.4999C22.4494 20.7997 21.8295 20.0557 21.421 19.1805C21.1438 18.5678 21.0199 17.853 21.2314 17.2039C21.4429 16.5402 21.917 16.0077 22.3911 15.5118C23.7112 14.1916 25.3378 13.2215 26.6287 11.8795C27.3436 11.1428 27.9343 10.2603 28.1384 9.24646C28.3063 8.5025 28.226 7.73666 28.0729 7Z" fill="white"/>
<path fill-rule="evenodd" clip-rule="evenodd" d="M28.0729 7C28.7584 7.78043 28.9847 8.89636 28.7876 9.9029C28.5761 11.0334 27.9488 12.0327 27.2122 12.8933C26.6214 13.5862 25.943 14.1989 25.2356 14.7678C24.4114 15.4315 23.6018 16.1463 23.084 17.0799C22.6463 17.8385 22.5442 18.772 22.8433 19.5962C23.332 21.0112 24.4698 22.0615 25.0897 23.3963C24.4041 22.7909 23.7331 22.1636 23.1059 21.4999C22.4494 20.7997 21.8295 20.0557 21.421 19.1805C21.1438 18.5678 21.0199 17.853 21.2314 17.2039C21.4429 16.5402 21.917 16.0077 22.3911 15.5118C23.7112 14.1916 25.3378 13.2215 26.6287 11.8795C27.3436 11.1428 27.9343 10.2603 28.1384 9.24646C28.3063 8.5025 28.226 7.73666 28.0729 7Z" stroke="white" stroke-width="0.094"/>
<path fill-rule="evenodd" clip-rule="evenodd" d="M26.9934 15.3076C28.4084 14.2646 30.064 13.6008 31.7416 13.1194C30.4142 13.9655 29.0284 14.7386 27.8832 15.8254C27.4675 16.2266 27.0736 16.6861 26.8913 17.2477C26.7527 17.6634 26.8111 18.1229 26.9789 18.5168C27.2852 19.217 27.803 19.7859 28.1969 20.4277C28.5323 20.9748 28.5908 21.675 28.3355 22.2658C27.9488 23.1337 27.1903 23.7683 26.4027 24.2715C26.3005 24.3299 26.2131 24.4393 26.089 24.4539C26.6142 23.9798 27.0226 23.3088 27.008 22.5867C26.9934 22.0469 26.6944 21.5729 26.3442 21.1863C25.6222 20.3256 25.0168 19.2316 25.1408 18.0719C25.2649 16.9122 26.0962 15.9786 26.9934 15.3076Z" fill="white"/>
<path fill-rule="evenodd" clip-rule="evenodd" d="M26.9934 15.3076C28.4084 14.2646 30.064 13.6008 31.7416 13.1194C30.4142 13.9655 29.0284 14.7386 27.8832 15.8254C27.4675 16.2266 27.0736 16.6861 26.8913 17.2477C26.7527 17.6634 26.8111 18.1229 26.9789 18.5168C27.2852 19.217 27.803 19.7859 28.1969 20.4277C28.5323 20.9748 28.5908 21.675 28.3355 22.2658C27.9488 23.1337 27.1903 23.7683 26.4027 24.2715C26.3005 24.3299 26.2131 24.4393 26.089 24.4539C26.6142 23.9798 27.0226 23.3088 27.008 22.5867C26.9934 22.0469 26.6944 21.5729 26.3442 21.1863C25.6222 20.3256 25.0168 19.2316 25.1408 18.0719C25.2649 16.9122 26.0962 15.9786 26.9934 15.3076Z" stroke="white" stroke-width="0.094"/>
<path fill-rule="evenodd" clip-rule="evenodd" d="M32.0115 23.739C32.3178 23.3671 32.8064 23.2722 33.2514 23.2139C34.0245 23.1118 34.8486 23.3087 35.4321 23.8412C35.9137 24.2715 36.1834 24.9425 36.0813 25.5916C35.9719 26.3429 35.4686 26.9702 34.8998 27.4443C33.8714 28.2684 32.6022 28.7498 31.3331 29.0708C31.4061 28.9904 31.4862 28.9175 31.5811 28.8592C32.5438 28.3414 33.4993 27.736 34.2069 26.8899C34.6373 26.3648 34.9727 25.6792 34.8341 24.9863C34.6882 24.184 33.9079 23.6005 33.1128 23.5567C32.7334 23.5202 32.3762 23.6661 32.0115 23.739Z" fill="white"/>
<path fill-rule="evenodd" clip-rule="evenodd" d="M32.0115 23.739C32.3178 23.3671 32.8064 23.2722 33.2514 23.2139C34.0245 23.1118 34.8486 23.3087 35.4321 23.8412C35.9137 24.2715 36.1834 24.9425 36.0813 25.5916C35.9719 26.3429 35.4686 26.9702 34.8998 27.4443C33.8714 28.2684 32.6022 28.7498 31.3331 29.0708C31.4061 28.9904 31.4862 28.9175 31.5811 28.8592C32.5438 28.3414 33.4993 27.736 34.2069 26.8899C34.6373 26.3648 34.9727 25.6792 34.8341 24.9863C34.6882 24.184 33.9079 23.6005 33.1128 23.5567C32.7334 23.5202 32.3762 23.6661 32.0115 23.739Z" stroke="white" stroke-width="0.094"/>
<path fill-rule="evenodd" clip-rule="evenodd" d="M17.3511 24.4028C18.6932 23.8266 20.1518 23.4546 21.6179 23.4765C20.7646 23.7245 19.8893 23.936 19.087 24.3153C18.8974 24.4174 18.6786 24.5122 18.5692 24.7091C18.5108 24.8623 18.6713 24.9644 18.788 25.0155C19.284 25.2197 19.831 25.2489 20.3634 25.2999C22.2306 25.4239 24.1051 25.351 25.965 25.2343C27.8029 25.1176 29.6264 24.8696 31.4426 24.5779C31.0414 24.7675 30.633 24.9571 30.2611 25.1978C30.0713 25.3291 29.838 25.3656 29.6264 25.4166C27.3946 25.9126 25.1043 26.0658 22.8287 26.1022C21.9462 26.1095 21.0709 26.0949 20.1957 26.0366C19.2183 25.9709 18.2337 25.898 17.2782 25.6427C17.001 25.5625 16.7093 25.475 16.4905 25.278C16.3811 25.1905 16.3811 25.0155 16.4759 24.9134C16.7166 24.6654 17.0521 24.5487 17.3511 24.4028Z" fill="white"/>
<path fill-rule="evenodd" clip-rule="evenodd" d="M17.3511 24.4028C18.6932 23.8266 20.1518 23.4546 21.6179 23.4765C20.7646 23.7245 19.8893 23.936 19.087 24.3153C18.8974 24.4174 18.6786 24.5122 18.5692 24.7091C18.5108 24.8623 18.6713 24.9644 18.788 25.0155C19.284 25.2197 19.831 25.2489 20.3634 25.2999C22.2306 25.4239 24.1051 25.351 25.965 25.2343C27.8029 25.1176 29.6264 24.8696 31.4426 24.5779C31.0414 24.7675 30.633 24.9571 30.2611 25.1978C30.0713 25.3291 29.838 25.3656 29.6264 25.4166C27.3946 25.9126 25.1043 26.0658 22.8287 26.1022C21.9462 26.1095 21.0709 26.0949 20.1957 26.0366C19.2183 25.9709 18.2337 25.898 17.2782 25.6427C17.001 25.5625 16.7093 25.475 16.4905 25.278C16.3811 25.1905 16.3811 25.0155 16.4759 24.9134C16.7166 24.6654 17.0521 24.5487 17.3511 24.4028Z" stroke="white" stroke-width="0.094"/>
<path fill-rule="evenodd" clip-rule="evenodd" d="M19.0724 27.5172C19.4517 27.2182 19.9039 27.0504 20.3561 26.89C20.2103 27.065 20.006 27.2328 19.9914 27.4735C19.9841 27.6266 20.1081 27.7433 20.2321 27.8163C20.4728 27.9402 20.7427 27.984 21.0126 28.0205C22.413 28.1664 23.8279 28.2466 25.2429 28.1518C26.5338 28.0861 27.8177 27.8746 29.0941 27.6485C29.444 27.9767 29.8599 28.2028 30.2975 28.3998C28.7584 28.852 27.1757 29.1145 25.5856 29.2385C24.0832 29.3406 22.5588 29.3333 21.0636 29.0926C20.4728 28.9832 19.8674 28.8593 19.3277 28.5821C19.1089 28.4654 18.8609 28.3122 18.7953 28.0569C18.7515 27.8381 18.912 27.6412 19.0724 27.5172Z" fill="white"/>
<path fill-rule="evenodd" clip-rule="evenodd" d="M19.0724 27.5172C19.4517 27.2182 19.9039 27.0504 20.3561 26.89C20.2103 27.065 20.006 27.2328 19.9914 27.4735C19.9841 27.6266 20.1081 27.7433 20.2321 27.8163C20.4728 27.9402 20.7427 27.984 21.0126 28.0205C22.413 28.1664 23.8279 28.2466 25.2429 28.1518C26.5338 28.0861 27.8177 27.8746 29.0941 27.6485C29.444 27.9767 29.8599 28.2028 30.2975 28.3998C28.7584 28.852 27.1757 29.1145 25.5856 29.2385C24.0832 29.3406 22.5588 29.3333 21.0636 29.0926C20.4728 28.9832 19.8674 28.8593 19.3277 28.5821C19.1089 28.4654 18.8609 28.3122 18.7953 28.0569C18.7515 27.8381 18.912 27.6412 19.0724 27.5172Z" stroke="white" stroke-width="0.094"/>
<path fill-rule="evenodd" clip-rule="evenodd" d="M19.9185 30.6972C20.254 30.4274 20.6698 30.2888 21.0782 30.1721C20.9469 30.296 20.7135 30.4492 20.8157 30.6607C21.0126 30.916 21.3773 30.9453 21.669 31.0109C22.9017 31.1641 24.1489 31.2662 25.3815 31.1713C26.315 31.1131 27.2342 30.9453 28.1459 30.7849C28.671 31.0911 29.218 31.3536 29.7796 31.5872C28.919 31.9736 27.9926 32.2217 27.0664 32.3967C25.5054 32.6738 23.8936 32.7103 22.3255 32.4624C21.6326 32.3383 20.9251 32.1779 20.2978 31.835C20.0571 31.6966 19.8018 31.536 19.6997 31.2662C19.6195 31.0547 19.7508 30.8286 19.9185 30.6972Z" fill="white"/>
<path fill-rule="evenodd" clip-rule="evenodd" d="M19.9185 30.6972C20.254 30.4274 20.6698 30.2888 21.0782 30.1721C20.9469 30.296 20.7135 30.4492 20.8157 30.6607C21.0126 30.916 21.3773 30.9453 21.669 31.0109C22.9017 31.1641 24.1489 31.2662 25.3815 31.1713C26.315 31.1131 27.2342 30.9453 28.1459 30.7849C28.671 31.0911 29.218 31.3536 29.7796 31.5872C28.919 31.9736 27.9926 32.2217 27.0664 32.3967C25.5054 32.6738 23.8936 32.7103 22.3255 32.4624C21.6326 32.3383 20.9251 32.1779 20.2978 31.835C20.0571 31.6966 19.8018 31.536 19.6997 31.2662C19.6195 31.0547 19.7508 30.8286 19.9185 30.6972Z" stroke="white" stroke-width="0.094"/>
<path fill-rule="evenodd" clip-rule="evenodd" d="M15.8705 32.7614C16.5415 32.5353 17.2344 32.353 17.9419 32.331C18.2264 32.3237 18.5181 32.3382 18.7661 32.4841C17.92 32.5353 17.074 32.7467 16.3154 33.1333C16.1477 33.2282 15.958 33.3376 15.8924 33.5345C15.8924 33.7605 16.1477 33.8335 16.3154 33.9064C17.373 34.3003 18.5035 34.4242 19.6122 34.5411C22.9162 34.8181 26.2421 34.7452 29.5462 34.4462C30.7934 34.3075 32.048 34.169 33.2587 33.8262C33.6452 33.6949 34.0828 33.5637 34.3381 33.2208C34.4914 33.0166 34.3892 32.7614 34.2361 32.5863C34.484 32.7249 34.8341 32.9 34.7832 33.2354C34.6883 33.5855 34.3308 33.7678 34.0391 33.9356C33.1056 34.4097 32.0771 34.6505 31.0559 34.8619C28.0875 35.4454 25.046 35.5767 22.0264 35.4893C19.7508 35.4089 17.4751 35.1901 15.2287 34.8036C14.8275 34.7087 14.3753 34.6285 14.0835 34.3148C13.8939 34.096 14.0617 33.7898 14.244 33.6294C14.7035 33.2063 15.2943 32.9729 15.8705 32.7614Z" fill="white"/>
<path fill-rule="evenodd" clip-rule="evenodd" d="M15.8705 32.7614C16.5415 32.5353 17.2344 32.353 17.9419 32.331C18.2264 32.3237 18.5181 32.3382 18.7661 32.4841C17.92 32.5353 17.074 32.7467 16.3154 33.1333C16.1477 33.2282 15.958 33.3376 15.8924 33.5345C15.8924 33.7605 16.1477 33.8335 16.3154 33.9064C17.373 34.3003 18.5035 34.4242 19.6122 34.5411C22.9162 34.8181 26.2421 34.7452 29.5462 34.4462C30.7934 34.3075 32.048 34.169 33.2587 33.8262C33.6452 33.6949 34.0828 33.5637 34.3381 33.2208C34.4914 33.0166 34.3892 32.7614 34.2361 32.5863C34.484 32.7249 34.8341 32.9 34.7832 33.2354C34.6883 33.5855 34.3308 33.7678 34.0391 33.9356C33.1056 34.4097 32.0771 34.6505 31.0559 34.8619C28.0875 35.4454 25.046 35.5767 22.0264 35.4893C19.7508 35.4089 17.4751 35.1901 15.2287 34.8036C14.8275 34.7087 14.3753 34.6285 14.0835 34.3148C13.8939 34.096 14.0617 33.7898 14.244 33.6294C14.7035 33.2063 15.2943 32.9729 15.8705 32.7614Z" stroke="white" stroke-width="0.094"/>
<path fill-rule="evenodd" clip-rule="evenodd" d="M34.0464 35.2558C34.7832 35.0005 35.5707 34.7307 36.1178 34.1472C36.0231 34.7817 35.4761 35.2193 34.9363 35.5038C33.9005 36.0436 32.7409 36.2916 31.5885 36.4957C29.1523 36.8824 26.6797 36.9771 24.2072 36.9333C22.5224 36.8824 20.8229 36.8167 19.1672 36.4665C18.7734 36.3571 18.3504 36.2842 18.0076 36.0509C19.4809 36.2989 20.9761 36.401 22.4713 36.4592C24.9293 36.5322 27.3946 36.4375 29.838 36.131C31.2529 35.9342 32.6752 35.6934 34.0464 35.2558Z" fill="white"/>
<path fill-rule="evenodd" clip-rule="evenodd" d="M34.0464 35.2558C34.7832 35.0005 35.5707 34.7307 36.1178 34.1472C36.0231 34.7817 35.4761 35.2193 34.9363 35.5038C33.9005 36.0436 32.7409 36.2916 31.5885 36.4957C29.1523 36.8824 26.6797 36.9771 24.2072 36.9333C22.5224 36.8824 20.8229 36.8167 19.1672 36.4665C18.7734 36.3571 18.3504 36.2842 18.0076 36.0509C19.4809 36.2989 20.9761 36.401 22.4713 36.4593C24.9293 36.5322 27.3946 36.4375 29.838 36.131C31.2529 35.9342 32.6752 35.6934 34.0464 35.2558Z" stroke="white" stroke-width="0.094"/>
</g>
</svg>
