<svg width="50" height="50" viewBox="0 0 50 50" fill="none" xmlns="http://www.w3.org/2000/svg">
<rect width="50" height="50" rx="25" fill="#1073BB"/>
<mask id="mask0_18_393" style="mask-type:luminance" maskUnits="userSpaceOnUse" x="0" y="0" width="50" height="50">
<rect width="50" height="50" rx="25" fill="white"/>
</mask>
<g mask="url(#mask0_18_393)">
<path d="M20.394 14.1191L21.9379 14.5976C21.8313 15.0472 21.6637 15.4226 21.4352 15.7243C21.2066 16.0262 20.9228 16.254 20.5839 16.4074C20.2449 16.5611 19.8134 16.6379 19.2894 16.6379C18.6538 16.6379 18.1345 16.5459 17.7317 16.3624C17.3287 16.1786 16.9812 15.8556 16.6887 15.3928C16.3963 14.9305 16.25 14.3386 16.25 13.6175C16.25 12.6558 16.5059 11.9167 17.0182 11.3999C17.5302 10.8832 18.255 10.625 19.1918 10.625C19.9256 10.625 20.5023 10.7758 20.9217 11.0776C21.341 11.3792 21.6528 11.8424 21.8567 12.4672L20.2316 12.8188C20.1766 12.6427 20.1191 12.514 20.0589 12.4329C19.959 12.2958 19.8371 12.1903 19.6927 12.1167C19.5484 12.0431 19.3873 12.0064 19.2095 12.0064C18.8059 12.0064 18.4964 12.1667 18.2815 12.4874C18.1189 12.7255 18.0377 13.099 18.0377 13.6087C18.0377 14.2393 18.1387 14.6714 18.3412 14.9056C18.5435 15.1397 18.8273 15.2565 19.193 15.2565C19.5485 15.2565 19.8171 15.1594 19.9985 14.9653C20.1801 14.7711 20.312 14.4889 20.394 14.1191Z" fill="white"/>
<path d="M22.4254 14.6308L24.213 14.5253C24.2478 14.7997 24.3185 15.0084 24.4251 15.1516C24.5986 15.384 24.8465 15.5005 25.169 15.5005C25.4096 15.5005 25.5946 15.4396 25.7245 15.3183C25.8543 15.1969 25.9194 15.056 25.9194 14.8961C25.9194 14.7447 25.8619 14.6089 25.7466 14.4888C25.6307 14.3686 25.3333 14.2549 24.854 14.1485C24.0695 13.9698 23.51 13.7343 23.1757 13.4413C22.838 13.1484 22.6692 12.7754 22.6692 12.3226C22.6692 12.0237 22.7562 11.7422 22.9295 11.4773C23.1031 11.2124 23.3641 11.004 23.7121 10.8524C24.0605 10.7011 24.5383 10.6254 25.1452 10.6254C25.8891 10.6254 26.4563 10.7655 26.8469 11.0461C27.2376 11.3268 27.4701 11.7735 27.5447 12.3863L25.757 12.4942C25.7182 12.2107 25.6366 12.0042 25.5127 11.8753C25.3888 11.746 25.2174 11.6816 24.999 11.6816C24.8195 11.6816 24.6843 11.7262 24.5934 11.8156C24.5024 11.9051 24.4569 12.0134 24.4569 12.1412C24.4569 12.2344 24.4781 12.3186 24.5204 12.3938C24.561 12.471 24.7394 12.5427 25.0559 12.6097C25.8382 12.78 26.3987 12.9517 26.7372 13.1259C27.0757 13.2998 27.3218 13.5157 27.476 13.7734C27.63 14.0313 27.7069 14.3196 27.7069 14.6385C27.7069 15.0128 27.6037 15.3578 27.397 15.6739C27.1906 15.9901 26.902 16.23 26.5314 16.3933C26.1606 16.5568 25.6933 16.6383 25.1295 16.6383C24.1393 16.6383 23.4534 16.4493 23.0722 16.0713C22.691 15.6933 22.4755 15.2131 22.4254 14.6308Z" fill="white"/>
<path d="M28.2759 14.6308L30.0633 14.5253C30.098 14.7997 30.1686 15.0084 30.2753 15.1516C30.4489 15.384 30.6968 15.5005 31.0191 15.5005C31.2596 15.5005 31.4448 15.4396 31.5749 15.3183C31.7046 15.1969 31.7699 15.056 31.7699 14.8961C31.7699 14.7447 31.7121 14.6089 31.5971 14.4888C31.4811 14.3686 31.1834 14.2549 30.7045 14.1485C29.9197 13.9698 29.3603 13.7343 29.0258 13.4413C28.6882 13.1484 28.5193 12.7754 28.5193 12.3226C28.5193 12.0237 28.6062 11.7422 28.7797 11.4773C28.953 11.2124 29.2143 11.004 29.5626 10.8524C29.9107 10.7011 30.3884 10.6254 30.9953 10.6254C31.7392 10.6254 32.3066 10.7655 32.6972 11.0461C33.0877 11.3268 33.3202 11.7735 33.3949 12.3863L31.6073 12.4942C31.5683 12.2107 31.4868 12.0042 31.3628 11.8753C31.2388 11.746 31.0679 11.6816 30.8492 11.6816C30.67 11.6816 30.5345 11.7262 30.4435 11.8156C30.3527 11.9051 30.3071 12.0134 30.3071 12.1412C30.3071 12.2344 30.3283 12.3186 30.3704 12.3938C30.4111 12.471 30.5899 12.5427 30.9065 12.6097C31.6887 12.78 32.2489 12.9517 32.5875 13.1259C32.9259 13.2998 33.1719 13.5157 33.3264 13.7734C33.4802 14.0313 33.5572 14.3196 33.5572 14.6385C33.5572 15.0128 33.454 15.3578 33.2475 15.6739C33.0408 15.9901 32.7522 16.23 32.3815 16.3933C32.0109 16.5568 31.5435 16.6383 30.9797 16.6383C29.9894 16.6383 29.304 16.4493 28.9223 16.0713C28.5411 15.6933 28.3258 15.2131 28.2759 14.6308Z" fill="white"/>
<path d="M18.4154 20.625L17.7859 23.7546H30.5978L30.1979 25.7762H17.3775L16.7565 28.9058H29.5684L28.8538 32.4756L23.6898 34.1757L19.2151 32.4756L19.5214 30.9276H16.3737L15.625 34.6832L23.0264 37.5L31.5592 34.6832L32.6906 29.0328L32.9203 27.8995L34.375 20.625H18.4154Z" fill="white"/>
</g>
</svg>
