<svg width="50" height="50" viewBox="0 0 50 50" fill="none" xmlns="http://www.w3.org/2000/svg">
<rect width="50" height="50" rx="25" fill="#E44E25"/>
<mask id="mask0_18_392" style="mask-type:luminance" maskUnits="userSpaceOnUse" x="0" y="0" width="50" height="50">
<rect width="50" height="50" rx="25" fill="white"/>
</mask>
<g mask="url(#mask0_18_392)">
<path d="M15 11.875H16.4188V13.449H18.0308V11.875H19.4494V16.4083H18.0308V14.5825H16.4188V16.4083H15V11.875Z" fill="white"/>
<path d="M20.0298 11.875H24.4145V12.9453H22.9315V16.4083H21.5129V12.9453H20.0298V11.875Z" fill="white"/>
<path d="M24.995 11.875H26.8649L27.5772 14.6435L28.2823 11.875H30.1536V16.4083H28.9928V12.9711L28.1172 16.4083H27.0402L26.1557 12.9711V16.4083H24.995V11.875Z" fill="white"/>
<path d="M31.0564 11.875H32.4748V15.2751H34.732V16.4083H31.0564V11.875Z" fill="white"/>
<path d="M25.2172 29.7122H25.2066H18.3301L17.5737 21.4312L17.5 20.625H25.2066H25.2172H32.9161L32.8426 21.4312L32.7023 22.9546L32.6405 23.6301H32.6307H25.2172H25.2066H20.8635L21.1447 26.7073H25.2066H25.2172H31.5311H32.3604L32.2853 27.5143L31.5622 35.4255L31.5159 35.9333L25.2173 37.6378V37.6382L25.203 37.6422L18.8988 35.9333L18.4677 31.2149H19.8916H21.5572L21.7763 33.6115L25.2038 34.5153L25.2066 34.5146V34.5142L28.639 33.6097L28.9964 29.7122H25.2172Z" fill="white"/>
</g>
</svg>
