<svg width="35.835007" height="35.834106" viewBox="0 0 35.835 35.8341" fill="none" xmlns="http://www.w3.org/2000/svg" xmlns:xlink="http://www.w3.org/1999/xlink">
	<desc>
			Created with Pixso.
	</desc>
	<defs/>
	<path d="M25.66 23.11L35.3 32.74C35.64 33.08 35.83 33.54 35.83 34.02C35.83 34.5 35.64 34.96 35.3 35.3C34.96 35.64 34.5 35.83 34.02 35.83C33.54 35.83 33.08 35.64 32.74 35.3L23.11 25.66C20.22 27.89 16.6 28.94 12.97 28.6C9.34 28.25 5.98 26.54 3.57 23.8C1.16 21.07 -0.11 17.52 0 13.88C0.12 10.23 1.62 6.77 4.19 4.19C6.77 1.62 10.23 0.12 13.88 0C17.52 -0.11 21.07 1.16 23.8 3.57C26.54 5.98 28.25 9.34 28.6 12.97C28.94 16.6 27.89 20.22 25.66 23.11L25.66 23.11ZM14.33 25.08C17.18 25.08 19.92 23.95 21.93 21.93C23.95 19.91 25.08 17.18 25.08 14.33C25.08 11.48 23.95 8.74 21.93 6.73C19.92 4.71 17.18 3.58 14.33 3.58C11.48 3.58 8.74 4.71 6.73 6.73C4.71 8.74 3.58 11.48 3.58 14.33C3.58 17.18 4.71 19.91 6.73 21.93C8.74 23.95 11.48 25.08 14.33 25.08Z" fill="#FFFFFF" fill-opacity="1.000000" fill-rule="evenodd"/>
</svg>
